<svg width="24" height="24" viewBox="0 0 24 24" fill="none" xmlns="http://www.w3.org/2000/svg">
<path d="M7.99982 12.0074C7.99593 9.79856 9.78366 8.00423 11.992 8.00039C14.2008 7.99607 15.9955 9.783 15.9998 11.9922C16.0041 14.2014 14.2164 15.9953 12.0072 15.9997C9.7988 16.0039 8.00409 14.2166 7.99982 12.0074ZM5.83851 12.0117C5.84512 15.4149 8.60911 18.1676 12.0115 18.161C15.4142 18.1544 18.1685 15.3912 18.1619 11.988C18.1553 8.5859 15.3909 5.83157 11.9878 5.83823C8.58534 5.84484 5.8319 8.6092 5.83851 12.0117ZM16.9528 5.58548C16.9543 6.3802 17.6004 7.0237 18.3952 7.02215C19.1903 7.02056 19.8338 6.37476 19.8326 5.58004C19.831 4.78532 19.1849 4.14145 18.3898 4.14304C17.5947 4.14459 16.9512 4.79076 16.9528 5.58548ZM7.17014 21.7761C6.00023 21.7252 5.36493 21.5308 4.94155 21.3679C4.38088 21.1509 3.9808 20.8908 3.55972 20.4729C3.13944 20.0533 2.87853 19.6544 2.65963 19.0949C2.49519 18.6715 2.29728 18.037 2.24244 16.8671C2.18296 15.6023 2.16936 15.2228 2.16355 12.0187C2.15732 8.81531 2.16899 8.43581 2.22421 7.16985C2.27432 6.00074 2.46993 5.3646 2.63244 4.9416C2.84938 4.38018 3.10874 3.98085 3.52747 3.55982C3.94696 3.13874 4.34587 2.87863 4.90574 2.65973C5.32879 2.49444 5.96329 2.29808 7.13282 2.24254C8.39836 2.18263 8.77744 2.16983 11.9808 2.1636C15.1848 2.15737 15.5643 2.16866 16.8303 2.22426C17.9994 2.27516 18.6355 2.4688 19.0581 2.63249C19.6191 2.84943 20.0192 3.10804 20.4399 3.52752C20.8606 3.94705 21.1215 4.34516 21.3404 4.90626C21.5056 5.32809 21.702 5.96338 21.7572 7.13254C21.8174 8.39807 21.8311 8.77758 21.8369 11.9809C21.8431 15.1851 21.8314 15.5646 21.7758 16.8298C21.7249 17.9996 21.5309 18.6354 21.3676 19.0591C21.1506 19.6194 20.8913 20.0195 20.4722 20.4406C20.053 20.8601 19.6541 21.1217 19.0939 21.3406C18.6716 21.5055 18.0363 21.7022 16.8676 21.7578C15.6021 21.8173 15.2229 21.831 12.0185 21.8368C8.81512 21.843 8.43609 21.831 7.17014 21.7761ZM7.03017 0.0830977C5.75334 0.143379 4.88127 0.347848 4.11918 0.646489C3.33032 0.954036 2.6616 1.36616 1.99639 2.03413C1.33034 2.70248 0.921313 3.37237 0.616109 4.16202C0.320656 4.92604 0.120406 5.79852 0.0640148 7.07615C0.00804596 8.35612 -0.00479782 8.76436 0.00143657 12.0229C0.00767095 15.2811 0.0220147 15.6901 0.0830461 16.9705C0.144077 18.2469 0.347843 19.1186 0.646438 19.8811C0.95436 20.67 1.36611 21.3384 2.03446 22.004C2.70243 22.6696 3.37274 23.0783 4.16277 23.3839C4.92599 23.6789 5.79881 23.88 7.07606 23.9359C8.35598 23.9923 8.76459 24.0047 12.0224 23.9986C15.2817 23.9923 15.6903 23.9779 16.9703 23.9173C18.2471 23.8562 19.1184 23.6518 19.8812 23.3539C20.6701 23.0452 21.3388 22.6342 22.0041 21.9659C22.6693 21.2979 23.0783 20.6276 23.3835 19.8376C23.679 19.0743 23.88 18.2014 23.9356 16.925C23.9916 15.6443 24.0049 15.2352 23.9986 11.977C23.9923 8.71847 23.9776 8.31023 23.917 7.03068C23.8563 5.75306 23.6518 4.88174 23.3536 4.1189C23.0453 3.33004 22.6339 2.66202 21.966 1.99602C21.298 1.33077 20.6277 0.920942 19.8377 0.616536C19.0741 0.321035 18.2016 0.11966 16.9244 0.0644415C15.6444 0.0076758 15.2358 -0.00474609 11.9768 0.00144141C8.7187 0.00767579 8.31009 0.0216446 7.03017 0.0830977Z" fill="black"/>
</svg>
