<svg width="24" height="24" viewBox="0 0 24 24" fill="none" xmlns="http://www.w3.org/2000/svg">
<path fill-rule="evenodd" clip-rule="evenodd" d="M18.5811 0C21.5739 0.000148083 24 2.4376 24 5.44434V18.5557C24 21.5624 21.5739 23.9999 18.5811 24H5.41895C2.42612 23.9999 0 21.5624 0 18.5557V5.44434C8.97764e-06 2.4376 2.42612 0.000148604 5.41895 0H18.5811ZM4.52637 9.30273V19.415H7.81641V9.30273H4.52637ZM9.6084 9.30273V19.415H12.7676V14.4297C12.7676 13.1672 13.02 11.9474 14.666 11.9473C16.2873 11.9473 16.3105 13.3895 16.3105 14.5107L16.3115 19.415H19.4736V13.9092C19.4736 11.3051 18.8813 9.30293 15.6797 9.30273C14.1399 9.30273 13.1069 10.1033 12.6846 10.8643H12.6406V9.30273H9.6084ZM6.17188 4.58496C5.26393 4.58496 4.52641 5.32516 4.52637 6.2373C4.52637 7.14901 5.26391 7.88965 6.17188 7.88965C7.07923 7.88948 7.81641 7.14891 7.81641 6.2373C7.81636 5.32527 7.0792 4.58513 6.17188 4.58496Z" fill="black"/>
</svg>
