<svg width="193" height="156" viewBox="0 0 193 156" fill="none" xmlns="http://www.w3.org/2000/svg">
<path d="M98.5469 70.7578C98.5868 71.6008 99.589 72.0191 100.216 71.4541L132.562 42.291L103.133 74.2979C102.558 74.9228 102.974 75.9342 103.822 75.9736L147.5 78L103.822 80.0264C102.974 80.0658 102.558 81.0772 103.133 81.7021L132.562 113.709L100.216 84.5459C99.589 83.9809 98.5868 84.3992 98.5469 85.2422L96.5 128.5L94.4531 85.2422C94.4132 84.3992 93.411 83.9809 92.7842 84.5459L60.4375 113.709L89.8672 81.7021C90.4418 81.0772 90.0257 80.0658 89.1777 80.0264L45.5 78L89.1777 75.9736C90.0257 75.9342 90.4418 74.9228 89.8672 74.2979L60.4375 42.291L92.7842 71.4541C93.411 72.0191 94.4132 71.6008 94.4531 70.7578L96.5 27.5L98.5469 70.7578Z" fill="#FF0000"/>
<path fill-rule="evenodd" clip-rule="evenodd" d="M96.5 0C149.795 0 193 34.9218 193 78C193 121.078 149.795 156 96.5 156C43.2045 156 0 121.078 0 78C0 34.9218 43.2045 0 96.5 0ZM96.5 1C43.5475 1 1 35.6624 1 78C1 120.338 43.5475 155 96.5 155C149.452 155 192 120.338 192 78C192 35.6624 149.452 1 96.5 1Z" fill="#FF0000"/>
</svg>
