<svg width="218" height="218" viewBox="0 0 218 218" fill="none" xmlns="http://www.w3.org/2000/svg">
<path d="M103.801 0.0435613C88.4102 0.861281 73.7518 4.69434 60.3889 11.3724C48.6111 17.2498 38.3503 24.9159 29.1803 34.6433L27.527 36.398H22.4988C17.6923 36.398 17.4536 36.4151 17.1298 36.7387C16.8059 37.0624 16.7889 37.3009 16.7889 43.8938V50.7252L16.2094 51.6281C14.0277 55.0352 10.3972 62.0199 8.62455 66.2107C4.12478 76.8752 1.46583 87.5226 0.306802 99.5158C-0.102267 103.809 -0.102267 113.945 0.306802 118.34C1.8749 135.07 6.81783 150.504 15.0844 164.405L16.7889 167.267V192.259C16.7889 214.593 16.823 217.285 17.0616 217.625L17.3173 218H109C192.109 218 200.7 217.983 200.938 217.727C201.177 217.489 201.211 214.951 201.211 192.378V167.267L202.916 164.405C211.182 150.504 216.125 135.07 217.693 118.34C218.102 113.945 218.102 103.809 217.693 99.5158C216.534 87.5226 213.875 76.8752 209.375 66.2107C207.603 62.0199 203.972 55.0352 201.791 51.6281L201.211 50.7252V36.9261L200.836 36.6706C200.512 36.4321 199.711 36.398 195.467 36.398H190.473L188.82 34.6433C170.071 14.7455 145.799 2.88855 118.63 0.367242C115.869 0.111705 106.426 -0.0927254 103.801 0.0435613ZM115.221 1.64493C126.266 2.36043 136.51 4.47288 146.242 8.08447C161.31 13.6722 175.252 22.7523 186.161 34.0812L188.308 36.3128L148.663 36.364C126.846 36.381 91.1543 36.381 69.3373 36.364L29.6746 36.3128L31.8563 34.0641C42.9182 22.6501 56.7073 13.6722 71.7576 8.08447C81.3026 4.55806 91.7509 2.36043 102.353 1.66197C105.506 1.45754 112.119 1.45754 115.221 1.64493ZM25.8737 38.3231C25.7032 38.5445 24.7487 39.7541 23.7431 40.9977C22.7375 42.2413 21.1694 44.3197 20.266 45.5803C19.3626 46.858 18.5445 47.9654 18.4763 48.0505C18.3911 48.1528 18.3229 46.0062 18.3229 43.0761V37.9313H26.1975L25.8737 38.3231ZM190.013 38.2379C190.286 38.5445 190.251 38.5445 188.888 38.4764C187.081 38.3912 186.195 38.6297 183.723 39.9074C180.741 41.4747 179.582 42.0199 178.832 42.2243C178.235 42.3776 178.013 42.582 177.519 43.3486C176.667 44.6604 174.98 46.2958 173.599 47.1306C171.179 48.5957 168.946 49.2601 162.861 50.3674C160.747 50.7422 158.344 51.2533 157.492 51.4918C154.731 52.2754 151.867 53.8086 151.373 54.7797C150.947 55.5804 149.549 56.824 148.441 57.3691C147.759 57.7099 146.617 58.0335 145.203 58.3061C141.248 59.0727 139.953 59.4134 138.828 60.0267C136.987 61.0148 136.425 61.117 131.584 61.2703C126.88 61.4066 126.215 61.5259 124.92 62.3266C122.312 63.979 119.278 65.4271 117.215 66.0063L116.005 66.347L115.051 65.4271C114.335 64.7627 114.096 64.4049 114.147 64.1324C114.216 63.5702 114.778 63.5531 115.818 64.0983C116.653 64.5242 116.721 64.5412 117.233 64.3027C117.539 64.1494 117.897 63.8257 118.034 63.5531C118.17 63.2806 118.698 62.5991 119.193 62.037C120.403 60.6741 121.357 59.192 121.613 58.272C121.8 57.6417 121.92 57.4884 122.312 57.4032C122.567 57.3521 122.908 57.1817 123.062 57.0114C123.317 56.7388 123.3 56.6366 122.908 55.6656C122.397 54.4901 122.363 54.1494 122.704 53.6894C122.942 53.3657 122.96 53.3657 123.266 53.6553C123.863 54.1834 124.17 54.0301 124.17 53.2124C124.17 52.8035 124.067 52.3776 123.965 52.2584C123.829 52.1391 123.744 51.5429 123.744 50.657C123.744 49.3964 123.709 49.243 123.369 49.1068C123.079 48.9705 123.028 48.8342 123.096 48.4253C123.164 48.0165 123.062 47.7439 122.653 47.2328C122.039 46.4662 121.835 45.8188 122.107 45.5463C122.738 44.9159 121.954 44.2345 120.539 44.2345C119.517 44.2345 119.517 44.2345 119.329 43.3486C119.261 43.025 118.937 42.7183 118.187 42.2584C117.369 41.7643 117.079 41.4747 116.841 40.8955C116.448 40.0096 115.579 39.3793 114.318 39.1067C113.568 38.9534 112.937 38.9704 110.96 39.226L108.506 39.5326L107.926 39.1067C107.347 38.7149 107.244 38.6979 104.296 38.6979C101.654 38.6979 101.16 38.7319 100.648 39.0215C99.6937 39.5156 98.9778 40.2822 97.8358 42.0369C96.5745 43.979 95.995 44.4389 94.7337 44.5412C93.9837 44.6093 93.7451 44.7115 93.4042 45.1204L92.9781 45.6315L93.4042 46.1425C94.1201 46.9943 93.9326 47.6758 92.6543 49.0216C92.177 49.5327 91.785 50.0608 91.785 50.1971C91.785 50.3504 92.0066 50.7763 92.2963 51.1511C92.8758 51.9177 92.8929 52.0369 92.552 52.4117C92.177 52.8376 92.1429 55.9892 92.535 56.5855C92.6884 56.824 92.927 57.0114 93.0633 57.0114C93.4554 57.0114 93.5235 57.318 93.2508 57.8121C93.0292 58.238 93.0463 58.3572 93.4042 59.0557C93.6088 59.4816 93.9156 60.2312 94.069 60.7082C94.4099 61.7133 95.0064 62.2925 95.7223 62.2925C96.0802 62.2925 96.1825 62.3606 96.1143 62.531C96.0632 62.6843 96.3188 63.0932 96.7109 63.5361C97.4779 64.3709 97.5461 64.6434 97.1029 65.1545C96.8131 65.5123 96.8131 65.5123 95.4666 64.422C94.2565 63.4509 93.9497 63.2976 92.3134 62.8206C88.734 61.7814 85.1717 61.5259 82.4787 62.1221C81.6435 62.3095 81.5753 62.2925 80.2799 61.6281C78.013 60.4526 75.5756 59.7712 70.9906 58.9875L68.5192 58.5616L67.326 57.2329C65.0591 54.7286 64.2751 54.0131 63.4058 53.6894C62.9285 53.519 62.2468 53.1613 61.8718 52.9228C59.5026 51.3385 56.9629 50.5889 50.6394 49.6008C46.9748 49.0216 45.6794 48.749 43.5148 48.0505C41.3501 47.335 40.8217 46.858 39.6457 44.5752C38.5207 42.3946 38.0094 41.8665 36.731 41.5088C36.3049 41.3895 36.0322 41.1681 35.8106 40.7592C35.3163 39.8393 34.4471 39.5497 32.2995 39.5667C31.3109 39.5837 30.1689 39.6519 29.7428 39.703C29.2826 39.7711 28.5837 39.7371 28.0042 39.6008L27.0327 39.3793L27.6292 38.6468L28.2428 37.9313H108.983C186.86 37.9313 189.74 37.9483 190.013 38.2379ZM199.677 43.0761C199.677 46.0062 199.609 48.1528 199.524 48.0505C199.456 47.9654 198.637 46.858 197.734 45.5803C196.831 44.3197 195.263 42.2413 194.257 40.9977C193.251 39.7541 192.297 38.5445 192.126 38.3231L191.803 37.9313H199.677V43.0761ZM192.706 41.4577C194.853 44.1493 196.541 46.4321 198.194 48.8853L199.677 51.0829V166.824L198.007 169.295C187.627 184.61 173.548 196.893 156.725 205.308C150.964 208.187 142.663 211.322 136.868 212.804L134.993 213.281L134.226 212.753C133.152 211.986 131.618 211.697 128.601 211.697C126.437 211.697 126.01 211.646 125.192 211.305C123.965 210.794 122.908 210.078 120.999 208.426C119.482 207.114 119.431 207.046 119.005 205.768C117.965 202.634 117.642 198.954 117.897 193.4C118.17 187.489 118.136 184.865 117.812 182.736C117.642 181.663 117.471 179.261 117.403 177.404C117.301 174.201 117.318 173.996 117.659 173.23C117.863 172.787 118.136 171.748 118.289 170.913C118.426 170.078 118.698 169.107 118.886 168.732C119.176 168.187 119.193 167.966 119.056 167.352C118.818 166.296 118.852 164.405 119.142 163.145C119.431 161.918 119.687 161.237 121.016 157.864C121.528 156.603 122.056 154.933 122.227 154.15C122.499 152.872 122.55 152.77 122.806 153.008C123.249 153.417 124.579 156.075 125.516 158.426C126.709 161.458 127.749 163.4 128.857 164.627C129.368 165.189 129.794 165.802 129.794 165.99C129.794 166.79 130.902 171.577 131.499 173.434C132.692 177.097 134.243 179.806 136.493 182.174C137.584 183.332 137.805 183.656 138.146 184.763C138.828 186.893 140.43 189.295 143.191 192.276C148.288 197.761 149.822 200.266 150.043 203.485C150.129 204.729 150.129 204.763 151.015 205.649C152.634 207.302 153.674 207.08 156.265 204.542C158.378 202.429 159.026 202.072 160.577 202.089C161.753 202.106 161.787 202.106 162.145 201.526C162.622 200.811 163.304 200.385 164.736 199.925C166.287 199.414 167.003 199.022 167.514 198.409C168.042 197.796 168.486 196.433 168.486 195.462C168.486 194.576 168.025 193.605 167.65 193.707C166.969 193.928 162.418 194.899 160.747 195.189C158.446 195.598 157.117 195.615 156.554 195.24C155.6 194.593 154.441 193.298 153.299 191.56C152.123 189.789 152.072 189.652 151.083 186.262C149.447 180.538 148.151 177.08 146.14 173.025C144.708 170.163 142.816 167.148 141.606 165.802C140.226 164.269 139.476 162.378 138.317 157.659C137.754 155.291 137.055 153.434 136.357 152.378C136.033 151.884 135.811 151.185 135.59 149.891C134.141 141.492 131.414 133.434 127.562 126.058C126.283 123.587 126.215 123.417 126.215 122.344C126.215 120.845 125.84 119.277 124.903 116.841C122.84 111.509 122.738 111.117 122.738 108.971C122.738 107.625 122.823 106.79 123.011 106.33C123.249 105.683 123.249 105.632 122.908 105.172C122.619 104.763 122.533 104.354 122.465 102.701C122.414 101.611 122.278 100.538 122.158 100.334C121.988 100.027 122.039 99.8054 122.465 98.8855C123.096 97.5226 123.727 95.3079 123.999 93.5533C124.459 90.572 125.073 87.233 125.226 86.9433C125.312 86.773 125.721 85.5975 126.13 84.3198C127.204 81.0489 127.919 80.0268 129.863 79.0387C130.987 78.4595 132.709 78.3573 134.925 78.715C136.663 79.0046 136.714 78.9876 138.828 78.2551C139.254 78.1017 141.044 78.0677 145.39 78.1017C150.077 78.1358 151.577 78.0847 152.361 77.8973C153.265 77.6759 153.537 77.6929 154.662 77.9144C155.549 78.1017 156.878 78.1869 158.855 78.1869C161.412 78.1869 162.264 78.1017 166.185 77.4885C170.77 76.773 173.65 76.4322 175.337 76.4322C176.104 76.4322 176.445 76.3471 176.957 75.9893C177.587 75.5634 177.656 75.5464 179.138 75.6656C182.275 75.9382 193.098 75.4782 193.933 75.0353C194.291 74.8479 194.291 74.5583 193.967 73.7576C193.831 73.4169 193.729 73.1102 193.763 73.0932C193.797 73.0591 194.325 72.8036 194.956 72.514C196.149 71.9859 196.388 71.5941 195.842 71.1511C195.603 70.9467 195.603 70.8956 195.842 70.623C195.995 70.4697 196.353 70.2312 196.626 70.129C197.291 69.8394 197.257 69.3624 196.524 68.698C196.2 68.3913 195.927 67.9825 195.927 67.778C195.927 67.0625 193.643 66.2278 191.308 66.0915C188.854 65.9382 182.07 66.7729 181.354 67.3181C180.468 67.9825 178.729 68.7832 177.366 69.1409C175.644 69.6009 171.724 69.6349 167.719 69.192C164.31 68.8172 160.134 68.7831 158.719 69.0898C158.174 69.209 157.287 69.5157 156.759 69.7542C155.873 70.1801 155.617 70.2142 153.657 70.2142C151.816 70.2142 151.236 70.146 149.396 69.669C148.22 69.3624 146.566 69.0046 145.731 68.8854L144.197 68.6469L145.237 67.6417C147.129 65.8019 149.174 65.0182 154.339 64.1664C159.946 63.2295 161.48 62.6843 164.446 60.5378C166.866 58.8002 167.412 58.4765 171.468 56.364C174.962 54.5582 176.053 53.9279 177.758 52.8035C178.201 52.4969 178.78 52.2414 179.036 52.2414C179.701 52.2414 181.491 51.6281 182.615 51.0148C183.144 50.7252 184.149 49.8904 184.882 49.1579C186.076 47.9143 186.229 47.812 186.877 47.812C187.354 47.812 187.865 47.6246 188.581 47.2158C189.74 46.5344 190.132 46.0744 190.132 45.3759C190.132 44.9841 190.013 44.8478 189.536 44.6434C189.212 44.5071 188.939 44.3197 188.939 44.2345C188.939 44.1493 189.484 43.7916 190.132 43.4679C191.342 42.8546 191.7 42.4287 191.53 41.8154C191.496 41.628 191.291 41.5088 191.07 41.5088C190.848 41.5088 190.643 41.4066 190.592 41.2873C190.524 41.0658 191.001 39.6348 191.155 39.6348C191.206 39.6348 191.905 40.4526 192.706 41.4577ZM102.353 39.9585C102.216 40.0437 101.909 40.1629 101.671 40.2141L101.245 40.3333L101.671 40.0778C101.909 39.9244 102.216 39.8222 102.353 39.8222C102.574 39.8222 102.574 39.8393 102.353 39.9585ZM186.894 39.9926C186.757 40.0778 185.837 40.5718 184.848 41.0658C182.939 42.0369 181.525 43.025 180.928 43.7745C180.604 44.1834 180.587 44.2345 180.86 44.2345C181.03 44.2345 181.866 43.979 182.735 43.6894C183.604 43.3827 184.371 43.1953 184.456 43.2635C184.712 43.536 183.689 44.1834 182.53 44.473C181.133 44.8308 180.928 44.9671 180.928 45.6144C180.928 46.0403 180.996 46.0914 181.559 46.1425C181.985 46.1766 182.223 46.2788 182.258 46.4662C182.326 46.858 181.695 47.0965 178.917 47.7609C178.644 47.8291 178.44 47.7269 178.184 47.4032C177.894 47.0454 177.775 46.9943 177.502 47.1306C177.042 47.3861 176.633 48.255 176.701 48.8853C176.735 49.3282 176.871 49.4986 177.417 49.7541C177.979 50.0267 178.201 50.0437 179.155 49.8904C180.076 49.7371 180.4 49.5667 181.474 48.732C182.155 48.2039 183.008 47.4884 183.365 47.1476C183.945 46.6025 183.996 46.5855 183.996 46.9091C183.996 47.1136 184.132 47.3521 184.303 47.4543C184.576 47.6076 184.576 47.6587 184.269 48.2209C183.826 49.0557 183.025 49.6178 181.371 50.2993C180.621 50.623 179.854 50.9466 179.701 51.0488C179.496 51.1681 179.275 51.1511 178.985 51.0318C178.61 50.8615 178.457 50.9296 177.57 51.594C175.951 52.8376 173.224 54.456 169.508 56.4151C165.111 58.715 163.713 59.5157 161.617 60.8785C160.679 61.4918 159.503 62.1221 158.992 62.3095C158.088 62.6162 155.583 63.008 153.009 63.2465C150.759 63.4339 150.06 63.7065 146.72 65.5804C143.362 67.4714 141.436 68.4254 140.243 68.7661C139.561 68.9705 139.476 68.9535 138.044 68.2721C136.22 67.3862 133.936 66.6196 132.232 66.2789C130.834 66.0233 128.26 65.9722 127.084 66.1937C126.641 66.2789 126.113 66.2789 125.721 66.1596C124.306 65.7678 120.999 66.0745 118.801 66.807C118.613 66.8751 119.431 66.3811 120.624 65.7167C122.874 64.4731 124.937 63.6554 125.891 63.6554C126.42 63.6554 126.42 63.6383 126.147 63.3317C125.874 63.025 125.908 63.008 127.016 62.6502C128.499 62.1732 130.391 61.9688 132.044 62.1051C133.919 62.2584 133.953 62.3606 132.419 63.502C131.857 63.9109 131.499 64.3027 131.499 64.5072C131.499 64.916 131.72 64.9501 132.027 64.5753C132.419 64.0983 134.226 62.9569 135.487 62.3606C136.834 61.7473 139.612 60.8785 142.714 60.0778C147.913 58.7661 150.418 57.5225 152.822 55.0863C155.02 52.8717 156.963 52.1732 164.31 50.9637C169.287 50.163 171.264 49.6178 173.514 48.4424C175.082 47.6246 176.803 46.0233 177.758 44.5241C178.116 43.979 178.491 43.502 178.593 43.4849C179.565 43.2124 180.604 42.7183 181.814 41.9858C184.78 40.1629 185.513 39.8222 186.553 39.8222C187.013 39.8052 187.098 39.8563 186.894 39.9926ZM35.4016 41.7643C36.3731 42.7865 36.9867 43.2805 37.4299 43.3998C37.9242 43.5531 38.1287 43.7405 38.3844 44.3027C39.2025 46.1255 40.9922 47.812 43.2932 48.9194C45.7135 50.1119 48.5429 50.6911 53.0938 50.9637C54.3892 51.0488 55.0199 51.1681 55.3948 51.3896C55.6846 51.577 57.1845 52.1902 58.7185 52.7695C61.9911 53.996 62.5365 54.2516 63.9342 55.2226C64.8375 55.87 66.3886 57.5736 66.3886 57.9313C66.3886 58.0165 66.167 58.3572 65.8773 58.715C65.6045 59.0557 65.4171 59.3964 65.4852 59.4645C65.6727 59.6519 66.8147 59.5838 67.0363 59.3623C67.1556 59.2431 67.2408 59.0216 67.2408 58.8513C67.2408 58.5957 67.3601 58.6128 68.093 59.0727C68.7748 59.4816 69.218 59.6179 70.4622 59.7371C73.4109 60.0438 75.4904 60.6741 78.5755 62.2073C80.6719 63.2465 85.1206 66.0915 85.2569 66.4663C85.3081 66.6537 80.6038 67.9143 79.8708 67.9143C78.7118 67.9143 74.1268 65.5293 69.985 62.7695C68.6214 61.8666 67.4794 61.1852 67.4454 61.2874C67.3431 61.56 68.093 62.5991 68.9623 63.3828C69.4225 63.7916 70.5475 64.5923 71.4679 65.1716C73.2916 66.2959 74.0757 66.8751 73.7859 66.8922C73.3428 66.8922 71.5701 66.2618 69.2862 65.2738C66.1329 63.9109 64.241 63.3146 62.724 63.1954C62.0763 63.1443 61.1218 62.9569 60.6105 62.7695C60.0991 62.5991 58.5651 62.1903 57.1845 61.8666C55.821 61.56 54.2358 61.117 53.6904 60.8956C52.1223 60.2482 49.8042 58.6128 47.4691 56.4833C44.9636 54.2005 43.9409 53.4168 42.6285 52.8206C40.8558 52.0199 40.157 52.6161 41.7592 53.5872C43.3955 54.5923 42.9694 54.5071 40.9581 53.4509C39.9013 52.9058 38.5719 52.3095 38.0094 52.1391C36.4242 51.6621 35.8788 51.0148 36.9015 50.8103C37.1912 50.7592 37.6174 50.5037 37.873 50.2652L38.3332 49.8052L37.3106 49.3453C36.4583 48.9705 36.0493 48.6127 34.9755 47.335C33.9698 46.1596 33.4414 45.6826 32.7937 45.393C32.1461 45.0863 31.9586 44.933 32.0438 44.6945C32.0949 44.5412 32.1801 44.2515 32.2313 44.0812C32.2995 43.8427 32.129 43.6212 31.4984 43.1953C31.0552 42.8887 30.2541 42.2754 29.7428 41.8325C29.2314 41.4066 28.6178 40.9466 28.4133 40.8273C28.1917 40.7251 28.0554 40.5888 28.0894 40.5377C28.2428 40.4015 29.078 40.9125 30.9359 42.2754C31.9245 42.9909 32.9471 43.7064 33.2199 43.8427C33.663 44.0812 33.7312 44.0642 34.055 43.7575C34.2937 43.519 34.43 43.1101 34.4812 42.4628L34.5493 41.5429L33.9016 41.2021C33.5267 41.0147 32.9812 40.8103 32.6744 40.7422C31.8733 40.5718 32.1801 40.3163 33.1687 40.3163C34.021 40.3163 34.038 40.3163 35.4016 41.7643ZM115.358 40.8444C115.801 41.134 116.193 41.4236 116.227 41.4917C116.278 41.5599 115.886 41.5599 115.358 41.5088C114.42 41.4066 113.943 41.0829 113.943 40.5377C113.943 40.1629 114.522 40.2822 115.358 40.8444ZM26.76 41.2362C27.135 41.5599 27.4077 41.8495 27.3565 41.8836C27.3054 41.9006 27.0497 42.0539 26.76 42.1902C26.0271 42.565 26.0441 43.025 26.8281 44.3367C27.6122 45.6144 27.6463 45.8018 27.2543 46.1766C27.0156 46.4321 27.0327 46.5003 27.3565 46.9602C28.1576 48.1016 29.9132 49.209 32.3847 50.1971C33.4244 50.6059 34.1232 50.9807 34.3448 51.2703C34.8561 51.9177 35.9299 52.4969 37.4128 52.9058C40.157 53.6894 40.5149 53.8257 41.3842 54.473C41.8785 54.8478 42.458 55.1886 42.6966 55.2567C43.6341 55.4782 45.7817 56.7047 47.7248 58.1187C53.4347 62.2584 55.3267 63.1443 58.3606 63.1443C59.3662 63.1443 59.7412 63.2465 60.8491 63.7746C61.8888 64.2687 62.4172 64.4049 63.4569 64.4731C64.4626 64.5242 65.008 64.6775 65.7579 65.0523C66.3034 65.3249 68.0249 65.9722 69.593 66.4833C72.0815 67.3181 74.8597 68.5276 74.6893 68.698C74.6552 68.732 73.2575 69.0387 71.5701 69.3624C69.8998 69.7031 68.059 70.1119 67.4794 70.2993L66.4397 70.6401L65.6386 70.1971C63.866 69.209 62.8774 69.0728 56.8436 68.9365C53.7927 68.8683 50.9973 68.732 50.6394 68.6298C50.2644 68.5276 49.6167 68.4765 49.1906 68.5276C48.7645 68.5617 47.2135 68.715 45.7647 68.8683C39.5775 69.4987 36.6288 69.0728 34.1573 67.1818C33.5778 66.7559 33.1687 66.5855 32.4699 66.5174C31.9586 66.4492 30.7314 66.1256 29.7428 65.7678C28.2088 65.2397 27.7315 65.1375 26.402 65.1204C24.9873 65.1034 24.7998 65.1375 24.1522 65.5804C23.5215 65.9893 23.4533 66.0915 23.6067 66.3811C23.8283 66.79 24.8851 67.3521 25.7714 67.5395L26.4191 67.6758L25.8225 68.0676C25.26 68.4254 25.1066 68.4424 22.9931 68.3402C20.4364 68.2039 19.7206 68.3913 19.2263 69.3283C18.9706 69.8223 18.9876 69.8734 19.3456 70.1631C19.5501 70.3334 19.8569 70.4697 20.0274 70.4697C20.5046 70.4697 20.7603 70.8956 20.4535 71.1511C20.3171 71.2704 20.1978 71.6281 20.1978 71.9348C20.1978 72.6162 20.6069 72.9399 21.7318 73.1103C22.8227 73.2806 23.1124 73.468 23.0102 73.928C22.9249 74.2176 23.0443 74.405 23.4704 74.7287C23.9647 75.0864 24.1692 75.1375 25.4816 75.0864C26.2827 75.0694 28.1576 75.2057 29.6575 75.4101C34.5834 76.0574 35.7936 76.1256 36.4754 75.853C37.464 75.4271 39.4241 75.2397 40.9922 75.4101C43.2762 75.6316 44.7249 75.9382 45.6624 76.3471C49.7872 78.1699 53.6222 78.4765 62.5536 77.7099C68.8771 77.1648 72.6099 77.1477 74.3995 77.6418C75.4563 77.9484 76.4108 78.0336 80.0242 78.1358C84.4899 78.2721 85.9728 78.4936 87.0466 79.1239C87.6772 79.4987 88.4783 80.7082 89.2965 82.6162C89.6544 83.434 90.2339 84.422 90.5919 84.8309C91.1543 85.4783 91.2396 85.6827 91.3418 86.79C91.5975 89.6009 92.3816 92.3437 94.3928 97.4204L95.5348 100.265L95.0916 101.935C94.836 102.855 94.461 104.286 94.2394 105.121C93.9326 106.245 93.8303 107.063 93.8303 108.374C93.8303 110.044 93.7963 110.18 93.1656 111.543C92.5009 112.94 92.0236 114.61 90.9498 119.141C90.1317 122.582 89.1772 124.627 87.4898 126.449C86.8932 127.097 86.6034 127.71 84.524 132.514C84.2172 133.23 83.8422 134.064 83.6718 134.388C83.0582 135.564 81.8991 138.903 81.5412 140.47C81.2855 141.645 81.1662 142.804 81.1321 144.576C81.081 147.71 81.0128 147.846 78.405 150.283C76.6494 151.918 75.7631 153.025 75.7631 153.605C75.7631 153.724 74.962 154.661 73.9734 155.7C68.093 161.969 64.3262 169.397 61.6843 179.925C60.9684 182.77 59.4003 190.3 59.4003 190.879C59.4003 191.339 57.8152 193.537 56.6732 194.661C55.3608 195.973 54.0313 196.688 52.6677 196.824C51.8496 196.91 51.6791 196.995 51.5428 197.336C51.1678 198.341 51.5087 199.295 52.5314 199.976C54.1676 201.066 55.7357 202.089 56.1448 202.327C59.8946 204.457 60.6957 204.746 61.6332 204.303C62.0934 204.099 62.2808 203.843 62.5195 203.196C62.8604 202.208 63.2183 199.721 63.0649 199.261C62.9967 199.056 63.1672 198.63 63.5592 198.085C64.3091 196.995 64.5989 196.092 65.025 193.554C65.5875 190.266 65.8602 189.686 69.0646 184.814C70.1725 183.145 71.2122 181.543 71.3656 181.271C71.5361 180.998 72.0644 180.317 72.5246 179.755C73.7689 178.289 74.8768 176.279 76.5472 172.412C79.1891 166.296 79.2572 166.194 84.2342 160.385C88.2397 155.7 90.0635 153.23 91.4611 150.572C91.9043 149.72 92.0407 149.55 92.1429 149.806C92.1941 149.976 92.535 151.56 92.8758 153.332C93.2338 155.087 93.7451 157.182 94.0178 157.983L94.5292 159.414L93.7451 165.921C93.0463 171.68 92.8758 172.634 92.3645 174.15C90.8135 178.749 90.9328 183.298 92.8077 191.799C93.5917 195.308 93.9667 196.296 95.6371 199.278C97.8869 203.264 98.3812 204.814 98.1937 207.199C98.1085 208.29 98.1597 208.733 98.3642 209.244C98.6199 209.84 98.6199 210.112 98.4324 211.799C98.2108 213.639 98.2278 213.724 98.5858 214.457C98.7903 214.882 99.2335 215.428 99.5914 215.683L100.222 216.143L99.5403 216.058C99.1653 216.007 98.0574 215.888 97.0688 215.785C82.4787 214.286 66.7806 209.022 53.912 201.288C40.3274 193.128 28.7542 182.225 19.9933 169.295L18.3229 166.824V51.0829L19.7887 48.8853C21.7659 45.9551 25.7543 40.657 25.993 40.657C26.0441 40.657 26.385 40.9296 26.76 41.2362ZM113.091 41.3214C113.091 41.4066 112.971 41.5258 112.818 41.5769C112.409 41.7302 112.341 41.6962 112.579 41.4236C112.818 41.134 113.091 41.0829 113.091 41.3214ZM28.6519 43.9108C28.8053 44.0812 28.8905 44.2856 28.8394 44.3367C28.669 44.5241 27.4418 43.8257 27.3906 43.519C27.3395 43.2635 27.4077 43.2464 27.8338 43.3998C28.1235 43.502 28.4815 43.7234 28.6519 43.9108ZM112.085 43.996C112.733 44.3708 113.261 45.2907 113.261 46.0233C113.261 46.4151 113.5 46.841 114.199 47.6417C115.272 48.9023 115.409 49.5497 114.744 50.18C114.369 50.5037 114.318 50.7422 114.233 52.548C114.045 55.7848 113.329 57.8121 111.829 59.3112C110.96 60.1801 110.96 60.1801 109.341 60.3845C107.5 60.623 106.137 60.4867 105.591 59.9927C105.318 59.7542 105.25 59.4816 105.267 58.8513C105.301 58.1017 105.318 58.0676 105.54 58.3743C105.744 58.6639 105.983 58.715 107.142 58.715C107.892 58.715 108.676 58.8001 108.864 58.9024C109.136 59.0557 109.273 59.0387 109.477 58.8172C109.733 58.5787 109.699 58.5105 109.256 58.0335L108.761 57.5225H109.358C110.091 57.5225 110.585 57.1817 110.517 56.7558C110.415 56.2959 109.085 55.8359 108.403 56.0233C108.131 56.0915 107.33 56.1596 106.648 56.1596C105.966 56.1596 105.233 56.2448 105.046 56.347C104.722 56.5173 104.705 56.5003 104.807 56.1085C104.875 55.8359 104.824 55.6144 104.654 55.4782C104.449 55.3078 104.262 55.3759 103.648 55.887C103.239 56.2277 102.847 56.5003 102.796 56.5003C102.745 56.5003 102.83 56.2277 102.966 55.9041C103.273 55.1374 103.273 54.7116 102.932 54.3708C102.625 54.0812 102.694 54.0642 101.569 54.8989L101.074 55.2737V54.0472C101.057 53.1783 100.921 52.4287 100.58 51.3896L100.086 49.9586L100.444 49.3282C100.648 48.9875 101.04 48.1016 101.33 47.3691C102.54 44.3367 103.103 43.8427 105.387 43.8597C106.205 43.8768 107.415 43.8086 108.063 43.7234C109.835 43.519 111.437 43.6212 112.085 43.996ZM118 44.013C117.914 44.8478 117.028 44.6945 117.011 43.8427C117.011 43.6383 117.147 43.5531 117.539 43.5531C118 43.5531 118.051 43.6042 118 44.013ZM121.016 45.887C120.897 46.1596 120.71 46.5684 120.607 46.824C120.284 47.6587 119.363 47.301 119.363 46.364C119.363 45.6996 119.704 45.427 120.522 45.427H121.255L121.016 45.887ZM30.0155 46.9773C30.3905 47.1647 31.0211 47.5735 31.4302 47.9143C32.112 48.5105 32.1631 48.5275 32.4699 48.2379C32.8108 47.9313 32.8108 47.9483 32.8108 48.6298C32.8108 49.0216 32.7937 49.3453 32.7767 49.3453C32.7426 49.3453 31.9927 48.9875 31.1063 48.5616C29.6405 47.8631 28.3792 46.9432 28.3792 46.5855C28.3792 46.3981 29.1633 46.5855 30.0155 46.9773ZM121.783 48.3061C121.783 48.3913 121.664 48.5446 121.528 48.6638C121.391 48.7831 121.272 48.8342 121.272 48.7831C121.272 48.732 121.221 48.5786 121.17 48.4253C121.102 48.2209 121.17 48.1528 121.425 48.1528C121.63 48.1528 121.783 48.2209 121.783 48.3061ZM120.505 50.3674C120.556 50.4526 120.522 50.5378 120.437 50.5378C120.335 50.5378 120.249 50.4526 120.249 50.3674C120.249 50.2652 120.284 50.1971 120.318 50.1971C120.369 50.1971 120.454 50.2652 120.505 50.3674ZM122.465 51.7303C122.465 52.4117 122.397 52.9228 122.295 52.9228C122.192 52.9228 122.124 52.4117 122.124 51.7303C122.124 51.0488 122.192 50.5378 122.295 50.5378C122.397 50.5378 122.465 51.0488 122.465 51.7303ZM120.198 53.042C120.147 53.2124 120.113 53.1102 120.113 52.8376C120.113 52.548 120.147 52.4287 120.198 52.531C120.232 52.6502 120.232 52.8887 120.198 53.042ZM16.7548 136.501L16.7037 164.218L15.306 161.765C0.374981 135.359 -2.64191 103.775 7.02236 74.7287C8.91431 69.0046 11.9653 62.1392 15.2208 56.2959L16.7037 53.6213L16.7548 81.2023C16.7719 96.3642 16.7719 121.254 16.7548 136.501ZM202.592 55.9381C205.677 61.3726 209.018 68.8683 210.995 74.7287C220.045 101.662 217.966 131.543 205.285 156.875C204.006 159.431 201.995 163.111 201.45 163.911C201.245 164.184 201.211 155.768 201.211 109.005C201.211 78.6299 201.245 53.7746 201.279 53.7746C201.33 53.7746 201.91 54.7456 202.592 55.9381ZM122.073 56.0915C121.869 56.3129 121.443 55.9892 121.443 55.6144V55.2397L121.818 55.5974C122.022 55.8189 122.141 56.0233 122.073 56.0915ZM103.12 62.3436C103.12 62.9058 103.307 63.3658 103.87 64.3027C104.62 65.5634 104.926 65.7508 105.233 65.2227C105.574 64.6775 105.932 65.4441 105.932 66.6707C105.932 68.238 106.58 69.2772 107.568 69.2772C108.063 69.2772 109.562 67.6588 110.142 66.4833L110.602 65.5293L110.21 65.1204C109.665 64.5412 109.324 64.7457 108.727 65.9893C108.25 66.9944 107.858 67.5736 107.636 67.5736C107.449 67.5736 107.159 66.79 106.852 65.4612C106.716 64.7968 106.512 64.1324 106.426 63.962C106.239 63.6213 106.324 63.5872 108.386 63.3146C109.153 63.2124 110.006 62.991 110.329 62.8036C110.636 62.6162 110.909 62.4629 110.926 62.4629C110.943 62.4629 110.943 63.3317 110.909 64.4049L110.841 66.347L111.676 67.1307C112.545 67.9825 113.005 68.0676 113.329 67.4884C113.432 67.301 113.517 67.1307 113.517 67.1136C113.517 67.0966 113.943 67.1988 114.454 67.3351C114.966 67.4714 115.63 67.5395 115.903 67.4714C116.244 67.4032 116.363 67.4203 116.244 67.5395C116.159 67.6417 115.477 67.8462 114.761 67.9995C113.841 68.2039 113.483 68.3573 113.534 68.5106C113.67 68.8683 115.153 68.9705 115.971 68.6809C117.113 68.2891 120.505 67.6247 122.585 67.4032C125.039 67.1307 130.016 67.267 132.181 67.6588C133.902 67.9654 136.22 68.5958 137.26 69.0387L137.891 69.2942L136.169 70.1971C134.226 71.2363 132.215 72.4799 130.425 73.7406C128.721 74.9331 126.215 76.9774 126.215 77.1477C126.215 77.4203 127.152 77.267 127.579 76.9433C127.817 76.7559 128.09 76.6026 128.209 76.6026C128.329 76.6026 128.925 76.2278 129.539 75.7508C132.198 73.7406 135.419 72.0029 138.163 71.1C142.135 69.7883 147.657 69.8394 150.93 71.2022C151.424 71.4237 151.663 71.4067 152.941 71.1171C155.31 70.5889 158.668 70.146 161.804 69.9245C165.043 69.7031 169.304 69.8905 172.133 70.4016C173.531 70.6401 173.803 70.6401 175.44 70.3845C178.218 69.9416 180.638 69.0898 181.917 68.0676C182.343 67.744 183.655 67.6077 183.655 67.8802C183.655 68.221 184.695 68.4765 186.212 68.5106C187.507 68.5446 188.036 68.6469 188.837 68.9705C189.808 69.3794 189.825 69.4135 189.467 69.6179C188.939 69.8905 187.712 69.8564 186.553 69.5327C186.041 69.3964 185.343 69.2772 185.019 69.2772C184.422 69.2772 183.314 69.8223 183.314 70.1119C183.314 70.3845 184.32 71.0148 184.524 70.8786C184.644 70.8104 184.695 70.8615 184.644 70.9978C184.576 71.2704 182.871 72.1562 182.428 72.1733C182.275 72.1733 181.883 71.8155 181.593 71.3556C180.655 70.0097 180.178 69.8223 179.582 70.5719C179.07 71.2193 179.138 71.6963 179.82 72.3947C181.269 73.8939 184.098 73.468 185.769 71.4748L186.212 70.9467L190.217 71.1682C192.416 71.2874 194.172 71.4237 194.121 71.4748C193.882 71.7133 191.496 72.2755 191.291 72.1562C190.831 71.8496 189.689 72.0029 188.769 72.4629C188.257 72.7355 187.814 73.0421 187.78 73.1614C187.644 73.6043 188.922 73.9109 190.592 73.8428C191.462 73.8258 192.177 73.8428 192.177 73.9109C192.177 73.9961 192.058 74.0472 191.905 74.0472C191.547 74.0472 187.593 74.5413 187.115 74.6435L186.74 74.7287L187.081 74.1494C187.473 73.468 187.456 72.7184 187.03 72.4459C186.774 72.2925 186.672 72.3436 186.433 72.6844C185.973 73.3658 185.036 74.2005 184.269 74.6094C183.689 74.916 183.28 74.9842 181.866 74.9842H180.161L180.11 74.1835C180.076 73.5532 179.974 73.3147 179.701 73.1784C179.377 73.008 179.292 73.0421 178.985 73.468C178.405 74.2857 177.826 74.7627 176.906 75.1716C175.644 75.7678 174.553 75.9212 171.656 75.9382C168.929 75.9382 168.792 75.9552 165.332 76.6878C161.634 77.4544 157.27 77.5225 154.168 76.8411C152.924 76.5856 152.839 76.5856 151.765 76.9092C150.043 77.4374 148.714 77.5055 145.987 77.2159C141.504 76.7218 139.084 76.8922 137.277 77.7951C136.68 78.1017 136.578 78.1188 135.402 77.8632C133.544 77.4714 131.141 77.5225 129.777 77.9655C128.891 78.2551 128.482 78.5447 127.544 79.4646C126.59 80.3846 126.385 80.5379 126.385 80.2312C126.385 80.0268 126.573 79.635 126.812 79.3624C127.306 78.7661 127.34 78.5958 126.965 78.3062C126.743 78.1188 126.556 78.238 125.636 79.1409C124.664 80.112 124.511 80.1972 124.187 80.0098C123.59 79.7031 123.215 79.9416 122.039 81.3726C121.425 82.0881 120.761 82.8036 120.539 82.957C119.789 83.434 116.772 83.9791 115.238 83.8939C113.5 83.7917 112.869 83.4851 111.301 81.9007C110.653 81.2363 110.023 80.6912 109.903 80.6912C109.528 80.6912 109.494 81.3386 109.835 82.02C110.329 82.991 111.335 83.8087 113.023 84.6265C114.403 85.2909 114.642 85.342 115.699 85.3079C118.477 85.2227 120.693 84.5413 122.022 83.3829L122.687 82.8036L123.59 83.2806C124.067 83.5532 124.545 83.8599 124.647 83.9791C124.971 84.388 121.698 98.7492 121.238 98.9025C120.931 99.0047 120.249 99.7202 120.249 99.9417C120.249 100.044 120.437 100.299 120.676 100.521C121.255 101.066 121.443 101.662 121.443 103.076C121.443 103.894 121.528 104.422 121.698 104.644C122.022 105.069 122.022 106.688 121.715 108.357C121.34 110.248 121.306 110.282 120.13 110.197C119.295 110.146 119.056 110.197 118.664 110.504C118.085 110.964 118.102 111.543 118.715 111.765C119.056 111.867 119.431 111.799 120.249 111.475C120.846 111.219 121.357 111.049 121.374 111.066C121.391 111.083 121.579 115.121 121.783 120.044C122.295 132.071 122.175 143.059 121.511 148.46L121.391 149.38L120.301 148.289C118.732 146.756 117.011 144.099 115.358 140.657C112.971 135.734 112.528 134.865 112.375 134.865C112.153 134.865 112.375 136.211 112.869 137.932C113.772 141.083 115.971 144.865 119.346 149.039C120.999 151.083 121.102 151.271 121.102 151.986C121.102 153.298 120.624 155.172 119.397 158.732C118 162.77 117.642 164.405 117.71 166.773C117.744 168.136 117.659 168.954 117.318 170.572C117.062 171.697 116.738 172.906 116.568 173.247C116.295 173.809 116.295 174.065 116.483 176.211C116.789 179.55 116.909 190.198 116.704 195.496L116.534 199.993L117.011 201.969C117.982 205.939 118.92 207.949 120.693 209.806C121.903 211.101 123.13 211.833 125.158 212.497C126.283 212.872 126.846 212.94 129.198 212.991C131.669 213.043 133.271 213.264 133.459 213.554C133.493 213.622 132.862 213.809 132.061 213.98L130.613 214.286L130.101 213.537L129.539 214.082C129.061 214.542 128.772 214.644 127.34 214.882C125.823 215.138 125.567 215.138 124.119 214.882C123.215 214.712 121.63 214.593 120.454 214.593C118.818 214.593 118.204 214.525 117.505 214.269L116.636 213.928L116.022 214.593C115.255 215.376 114.267 215.598 112.92 215.274C111.949 215.036 111.727 214.763 111.727 213.758C111.727 213.247 111.625 213.009 111.335 212.77L110.943 212.48L111.454 211.475C112.256 209.942 112.17 208.767 111.062 205.325C110.585 203.843 110.193 202.412 110.193 202.14C110.193 201.884 109.886 200.198 109.511 198.375C109.136 196.569 108.83 195.002 108.83 194.899C108.83 194.797 109.051 194.61 109.324 194.491L109.818 194.303L108.915 192.855C107.125 190.01 106.392 187.267 106.392 183.332C106.392 180.249 106.614 178.579 107.739 172.94C109.222 165.581 109.239 165.479 109.239 161.186C109.256 157.472 109.222 157.165 108.778 155.308C108.523 154.235 108.182 152.702 108.046 151.901C107.688 149.891 107.551 144.167 107.79 141.254C107.892 139.942 108.028 138.272 108.097 137.54L108.199 136.228H107.756C107.227 136.228 106.955 136.892 106.955 138.255C106.955 139.669 106.392 143.23 105.608 146.705C104.108 153.417 103.784 156.671 104.228 160.487C104.466 162.582 104.432 162.736 103.358 164.218C102.949 164.78 102.898 165.002 102.966 165.598C103.051 166.143 102.932 166.705 102.455 168.102C101.995 169.414 101.841 170.129 101.858 170.828C101.875 171.441 101.756 172.088 101.5 172.77C100.972 174.15 100.972 176.535 101.483 178.903C102.711 184.456 102.728 184.627 102.659 186.569C102.608 187.932 102.472 188.749 102.182 189.584L101.79 190.726L102.233 191.799C102.881 193.349 103.017 194.303 103.205 198.409C103.409 203.043 103.75 204.388 105.165 206.075L105.779 206.807L104.705 207.915L105.37 208.75C105.744 209.192 106.426 210.181 106.869 210.93C107.33 211.68 108.114 212.719 108.625 213.264C109.477 214.15 109.528 214.269 109.477 214.968C109.426 215.632 109.375 215.7 108.949 215.751C108.301 215.836 107.79 215.462 107.142 214.44C106.835 213.963 106.477 213.571 106.341 213.571C106.102 213.571 105.762 214.576 105.762 215.325C105.762 216.126 105.148 215.598 104.722 214.405C104.517 213.826 104.228 213.332 104.091 213.264C103.682 213.111 103.154 213.894 103.273 214.457C103.409 215.189 103.068 215.019 102.659 214.167C102.319 213.468 102.233 213.4 101.807 213.486C101.483 213.571 101.245 213.503 101.074 213.332C100.716 212.991 99.9664 213.298 99.9664 213.792C99.9664 214.133 99.9493 214.116 99.5403 213.741C99.0119 213.247 98.9948 212.634 99.4551 211.305C99.8812 210.095 99.8812 209.635 99.4551 209.09C99.1823 208.75 99.1142 208.409 99.1142 207.284C99.1142 204.525 98.5006 202.549 96.0802 197.472C94.2394 193.605 93.7281 192.14 93.302 189.55C93.1315 188.477 92.8247 187.012 92.6202 186.313C92.3134 185.274 92.2452 184.559 92.2452 182.48C92.2282 179.567 92.3816 178.511 93.6599 173.196C94.7678 168.562 95.0575 166.722 95.0916 164.252C95.1087 162.634 95.1428 162.378 95.245 162.974C95.4837 164.269 95.8927 165.189 96.3189 165.479C96.5575 165.632 96.7961 165.7 96.8472 165.632C97.0347 165.444 96.5916 161.782 96.1995 160.419C96.012 159.72 95.6371 158.749 95.3814 158.289C95.1257 157.812 94.836 157.284 94.7337 157.097C94.4439 156.552 93.4895 150.231 93.4895 148.817C93.4895 146.415 93.6428 146.16 96.762 143.11C101.858 138.136 103.358 136.432 104.245 134.678C104.449 134.269 104.654 133.894 104.688 133.86C104.705 133.826 104.892 133.996 105.097 134.252C105.727 135.07 106.358 135.257 108.523 135.342C111.267 135.444 111.591 135.359 112.682 134.269C113.193 133.758 113.602 133.213 113.602 133.042C113.602 132.548 112.954 131.628 112.613 131.628C112.273 131.628 111.659 132.191 111.812 132.344C111.863 132.395 111.949 132.599 111.983 132.804C112.034 133.093 111.983 133.162 111.744 133.076C111.557 133.025 111.062 133.247 110.415 133.673C109.767 134.116 109.29 134.32 109.119 134.252C108.949 134.201 108.83 134.099 108.83 134.03C108.83 133.962 108.727 133.758 108.591 133.587C108.369 133.281 108.335 133.281 107.807 133.724C107.517 133.979 107.193 134.184 107.108 134.184C106.46 134.184 105.762 133.23 105.762 132.361C105.762 132.105 105.898 131.526 106.051 131.066C106.324 130.334 106.324 130.231 106.068 129.993C105.813 129.737 105.727 129.823 104.875 131.015C104.381 131.731 103.495 133.179 102.932 134.235C101.909 136.075 101.705 136.313 97.6483 140.504C95.3132 142.906 93.3531 144.882 93.302 144.899C93.0633 144.95 92.5179 134.354 92.3816 126.858C92.2452 120.436 92.4327 116.807 92.944 115.444C93.1315 114.933 93.5406 113.86 93.8474 113.059C94.1371 112.259 94.4099 111.509 94.4439 111.39C94.4951 111.236 94.8019 111.339 95.5518 111.713C96.3189 112.122 96.6768 112.225 96.8643 112.088C97.3756 111.782 97.2563 111.526 96.1484 110.487C94.5292 108.988 94.5121 108.885 95.2791 105.155C95.6541 103.264 96.0632 101.747 96.3529 101.151C96.5916 100.623 96.7961 100.163 96.7791 100.112C96.762 100.061 96.3188 99.0729 95.7905 97.9144C94.069 94.0814 92.7224 89.5158 92.3816 86.3301C92.2963 85.5123 92.3304 85.2057 92.5009 85.1035C92.944 84.8139 94.3417 84.9672 96.1484 85.4953C98.7051 86.2278 99.9834 86.2278 101.5 85.4953C102.165 85.1716 103.426 84.7798 104.637 84.5243C106.972 84.0473 107.994 83.5362 108.472 82.5992C109.017 81.5089 109.051 81.083 108.625 80.7934C108.063 80.3845 107.926 80.4527 107.466 81.4237C107.108 82.1563 106.869 82.3777 106.119 82.7525C105.625 83.0081 104.739 83.2977 104.159 83.3999C103.597 83.5191 102.37 83.8428 101.449 84.1324C99.9834 84.5924 99.6084 84.6435 98.4494 84.5583C97.0347 84.4731 95.2791 83.8769 94.086 83.0932C93.0122 82.3777 91.6316 80.5719 90.1658 77.9484C88.5295 75.0183 87.8647 74.2857 85.0183 72.3607C83.0752 71.0489 81.456 69.5668 81.6435 69.2772C81.7798 69.0728 83.6206 68.4424 84.8479 68.1869C85.9898 67.9484 86.0069 67.9484 86.416 68.3573C86.9443 68.8854 87.2511 68.8683 88.8363 68.238C90.7794 67.4714 92.0577 67.4884 95.0064 68.3232C96.7961 68.8343 97.4608 68.9535 98.0574 68.8683C98.9948 68.7491 99.8471 68.1187 100.29 67.2499L100.631 66.6026L100.256 66.2107C100.052 66.0063 99.9834 65.8871 100.103 65.9552C100.375 66.0915 101.16 65.4271 101.16 65.0523C101.16 64.8479 101.211 64.8479 101.415 65.0182C101.654 65.2227 101.654 65.2738 101.415 65.5293C101.279 65.6826 101.16 65.9382 101.16 66.0745C101.16 66.4663 102.711 67.4032 103.341 67.4032C103.784 67.4032 103.904 67.4884 103.989 67.8632C104.245 69.0387 104.517 69.686 104.858 69.9075C105.199 70.129 105.25 70.1119 105.506 69.7201C105.779 69.2942 105.779 69.209 105.489 68.1699C105.233 67.284 104.943 66.807 104.108 65.8359C103.017 64.5583 102.796 64.0472 102.608 62.2414C102.506 61.3044 102.523 61.2533 102.813 61.4066C103.034 61.5429 103.12 61.7985 103.12 62.3436ZM112.954 63.3998C112.903 64.3538 112.852 64.5072 112.562 64.5072C112.136 64.5072 112.136 64.422 112.835 62.4969C112.971 62.1051 113.005 62.2925 112.954 63.3998ZM88.4443 63.2465L89.0067 63.8768L90.66 63.7405C92.2452 63.6213 92.3475 63.6383 92.944 64.0472C93.302 64.2687 93.8985 64.6264 94.2905 64.8308C95.211 65.2908 96.1995 66.1596 96.4041 66.6707C96.6086 67.2158 96.9836 67.1647 98.1937 66.3641C98.7903 65.9893 99.4039 65.6997 99.5744 65.7337C100.086 65.853 98.671 67.1647 97.7506 67.4032C96.8984 67.6417 95.6882 67.4544 92.9781 66.6366C91.6316 66.2278 91.3589 66.2107 88.9726 66.2789C87.575 66.33 86.2285 66.4152 85.9898 66.4833C85.5978 66.6026 85.5808 66.5855 85.8023 66.313C86.0239 66.0574 85.9046 65.8871 84.6263 64.5923C83.2968 63.2635 83.2286 63.1613 83.6206 63.0761C85.1206 62.7525 85.7001 62.6673 86.7228 62.6502C87.8477 62.6332 87.8988 62.6502 88.4443 63.2465ZM29.6575 66.7559C30.9018 67.3521 31.379 67.4884 32.2142 67.5055C34.0721 67.5395 36.6458 69.1409 37.4128 70.7423C37.6174 71.1511 37.8901 71.4918 38.0094 71.4918C38.2651 71.4918 38.7764 70.7593 38.7764 70.4016C38.7764 69.8734 40.7536 69.7712 51.5428 69.7883H60.8491L62.9285 70.4867C64.8887 71.1341 65.008 71.2022 64.8375 71.5259C64.4626 72.2244 64.9228 72.2755 66.5931 71.7133C68.5873 71.0489 70.002 70.7423 73.5303 70.2142C76.3085 69.8053 76.3426 69.8053 76.871 70.129C77.6891 70.6401 79.6152 71.56 81.3026 72.2585C85.4785 73.9791 87.4216 75.4101 88.359 77.4885C88.6317 78.0677 88.9215 78.7491 88.9897 78.9876C89.092 79.3794 89.0579 79.3624 88.3931 78.7661C86.9102 77.4374 86.6375 77.3692 81.6435 77.3522C77.2971 77.3351 77.1778 77.3181 75.6779 76.8581C74.178 76.3811 74.0246 76.3811 69.1498 76.313C64.7523 76.2448 64.1046 76.2619 63.8489 76.5004C63.3717 76.9263 62.0934 77.1137 58.8038 77.2329C54.1676 77.3862 50.8269 76.9092 46.4124 75.4612C44.0943 74.7116 44.0772 74.6946 43.8727 74.0813C43.617 73.2806 43.4125 73.0251 43.0375 73.0251C42.6796 73.0251 42.5262 73.3488 42.5262 74.1665V74.7798L41.0433 74.6605C40.2081 74.6094 39.0661 74.5072 38.5037 74.4561C37.7026 74.3709 37.3106 74.422 36.8333 74.6435C36.2368 74.9331 36.0833 74.9331 33.1005 74.5583C30.578 74.2516 29.5723 74.2005 27.7486 74.3028C26.5213 74.3709 25.3453 74.3709 25.1407 74.3028C24.7828 74.1835 24.7828 74.1835 25.0896 73.962C26.1975 73.2125 28.3451 73.1443 31.1404 73.8087C33.5778 74.3879 35.7425 74.4561 36.4754 73.9791C36.9356 73.6724 36.9526 73.6554 36.6288 73.4169C36.4583 73.2806 35.8788 73.0591 35.3675 72.9229C33.5267 72.4288 33.1517 72.2925 32.879 71.9859C32.5722 71.6452 32.521 71.1341 32.7085 70.4527C32.8278 70.0268 32.7937 69.9927 32.0949 69.8223C31.6859 69.7201 30.7484 69.5668 29.9984 69.4646C29.2485 69.3453 28.294 69.175 27.8679 69.0728L27.1009 68.8683L27.7826 68.732C28.1576 68.6639 29.1121 68.5958 29.9132 68.5787C30.7143 68.5617 31.6006 68.5106 31.8733 68.4424L32.3847 68.3402L31.7881 67.9654C31.0211 67.5055 29.6916 67.0625 29.0439 67.0625C28.7712 67.0625 28.2428 66.9092 27.8679 66.7218C27.4929 66.5344 26.8793 66.3811 26.4702 66.3811C26.0441 66.3811 25.8225 66.3129 25.9248 66.2278C26.4873 65.6826 27.8167 65.87 29.6575 66.7559ZM77.8084 68.3573C79.0016 68.9194 79.0697 68.9705 78.7629 69.209C78.2175 69.6009 77.9448 69.4987 76.4619 68.2891C75.6097 67.6077 75.5586 67.5225 76.0188 67.6417C76.3085 67.7099 77.1096 68.0336 77.8084 68.3573ZM25.1407 69.6009L25.5669 69.7372L25.0555 69.8394C24.7487 69.9075 24.2203 69.8564 23.7772 69.7201L23.0102 69.4816H23.8624C24.3396 69.4816 24.9021 69.5327 25.1407 69.6009ZM80.6038 70.0438C80.9276 70.2823 80.9106 70.2993 80.3992 70.2993C79.9902 70.2993 79.8879 70.2312 79.9561 70.0438C80.0754 69.7372 80.1947 69.7372 80.6038 70.0438ZM123.829 116.978C124.033 117.591 124.374 119.277 124.613 120.725C124.954 122.94 125.124 123.536 125.618 124.473C127.221 127.489 128.84 130.777 129.641 132.668C131.55 137.199 133.289 143.247 134.362 149.022C134.754 151.151 134.959 151.816 135.3 152.276C136.152 153.383 136.817 155.087 137.243 157.318C138.197 162.378 138.146 162.225 139.817 164.712C145.339 172.991 148.441 179.175 149.805 184.61C150.043 185.598 150.367 187.029 150.486 187.778C150.708 189.005 150.879 189.414 151.935 191.1C154.526 195.325 156.179 196.705 158.532 196.705C158.992 196.705 159.691 196.586 160.1 196.45C160.986 196.126 164.054 195.632 164.582 195.717C164.906 195.768 164.753 195.956 163.509 196.995C161.838 198.392 161.412 199.107 161.548 200.198L161.651 200.913L160.423 201.1C157.799 201.509 156.111 202.412 155.003 204.031C154.27 205.087 153.043 205.734 152.361 205.411C151.663 205.104 150.879 203.52 149.225 199.158C148.56 197.387 148.22 196.876 145.305 193.383C142.629 190.163 140.976 187.795 140.192 186.092C139.919 185.462 139.68 184.916 139.68 184.865C139.68 184.814 139.834 184.78 140.021 184.78C140.89 184.78 140.226 183.843 138.402 182.497C137.243 181.646 135.828 180.249 135.249 179.414C133.919 177.472 133.186 175.513 132.181 171.203C130.97 166.024 130.05 163.724 128.448 161.935C127.357 160.708 126.88 159.737 126.045 156.927C125.175 154.03 124.732 153.128 123.624 152.02L122.755 151.151L122.942 149.107C123.744 140.674 123.795 125.07 123.045 116.126C122.96 115.087 122.977 115.035 123.215 115.444C123.369 115.683 123.641 116.364 123.829 116.978ZM90.8475 127.182C91.035 129.005 91.1714 132.974 91.2737 138.545C91.3418 143.264 91.4611 147.199 91.5293 147.301C91.785 147.71 90.2851 150.862 88.717 153.264C87.4557 155.172 86.1432 156.858 82.7002 160.913C79.4618 164.746 77.9278 166.739 76.6324 168.835C75.3881 170.862 74.195 173.656 73.803 175.444C73.4791 176.91 72.5928 178.409 71.8088 178.784C71.519 178.92 71.1099 179.465 70.6838 180.249C70.3088 180.93 69.1498 182.838 68.093 184.456C64.9568 189.312 63.6615 192.412 63.6615 195.036C63.6615 195.956 63.6274 196.041 63.1501 196.279C62.349 196.688 62.1274 197.319 62.1274 199.175C62.1274 200.061 62.0763 200.794 62.0081 200.794C61.94 200.794 61.7184 200.64 61.5138 200.436C60.9684 199.925 59.9457 199.738 58.5992 199.942C57.6106 200.078 57.372 200.181 57.0141 200.623C56.5027 201.254 56.3323 201.271 56.3323 200.692C56.3323 200.198 57.1675 199.261 57.6277 199.261C57.7981 199.261 58.0708 199.141 58.2242 198.988C58.4629 198.767 58.497 198.63 58.3606 198.375C58.2072 198.085 58.0708 198.051 57.4572 198.136C56.9118 198.221 56.6732 198.187 56.5027 197.983C56.3323 197.778 56.0937 197.744 55.4119 197.83C54.6449 197.932 54.5597 197.915 54.7642 197.693C54.8835 197.54 55.3096 197.301 55.7357 197.148C56.3493 196.91 56.6902 196.586 57.5254 195.479C58.1049 194.712 58.906 193.434 59.298 192.634C60.7809 189.686 61.3945 187.489 62.6388 180.862C64.65 170.027 65.5193 168.17 72.5928 159.72C74.9109 156.978 76.9221 154.167 77.7062 152.599C77.9959 152.054 78.388 151.628 78.9845 151.254C79.9902 150.589 80.7572 149.55 81.2174 148.238C81.5412 147.318 81.6605 146.603 82.1548 142.77C82.3593 141.202 82.5298 140.572 83.1434 139.192C83.5695 138.255 84.2683 136.552 84.7115 135.393C87.217 128.749 88.342 126.313 89.8078 124.371C90.3021 123.707 90.3532 123.69 90.4555 124.03C90.5237 124.218 90.6941 125.649 90.8475 127.182ZM107.244 153.86C107.688 156.552 107.671 165.904 107.244 169.448C106.852 172.6 106.392 175.24 105.727 178.136C105.08 181.015 104.875 185.427 105.301 187.421C105.659 189.056 106.188 190.402 106.818 191.271C107.347 191.986 107.364 192.089 107.398 193.809C107.432 195.887 107.807 197.778 109 202.003C109.954 205.376 110.312 206.927 110.534 208.784C110.687 209.874 110.653 210.129 110.381 210.743C110.21 211.118 109.937 211.595 109.801 211.782C109.545 212.106 109.528 212.106 109.205 211.816C108.608 211.271 107.824 209.567 106.955 206.91C106.477 205.462 105.83 203.826 105.506 203.264C104.347 201.288 104.364 201.339 104.228 197.301C104.091 193.554 104.023 193.077 103.461 191.901C103.154 191.288 103.171 191.254 103.563 190.027C103.904 188.988 103.972 188.46 103.955 186.739C103.955 184.933 103.87 184.354 103.222 181.748C102.063 176.995 102.012 175.359 102.932 172.429C103.75 169.789 104.091 168.153 104.176 166.381L104.262 164.593L104.909 163.911L105.574 163.23L105.642 157.523C105.71 152.736 105.762 151.628 106.017 150.623L106.341 149.431L106.648 150.708C106.801 151.407 107.074 152.821 107.244 153.86ZM20.3853 172.514C22.0557 174.848 24.4419 177.881 26.5725 180.351C28.7031 182.821 34.0039 188.187 36.5606 190.453C51.4235 203.588 69.0646 212.276 88.4443 216.041L90.5067 216.433L18.3229 216.467L18.34 193.077C18.34 170.112 18.34 169.703 18.6638 170.129C18.8342 170.368 19.6183 171.441 20.3853 172.514ZM199.677 193.128V216.467L127.493 216.433L129.113 216.109C130.391 215.836 131.09 215.802 132.385 215.888C134.294 216.007 135.044 215.836 135.658 215.104C135.999 214.695 136.493 214.491 138.76 213.843C154.1 209.499 168.179 201.901 180.417 191.356C182.939 189.192 188.291 183.894 190.524 181.373C193.405 178.119 196.848 173.741 198.791 170.845C199.2 170.266 199.558 169.789 199.592 169.789C199.643 169.789 199.677 180.283 199.677 193.128ZM166.577 195.274C166.44 195.428 166.167 195.513 165.997 195.462C165.707 195.41 165.724 195.376 166.099 195.206C166.713 194.933 166.9 194.968 166.577 195.274ZM166.577 197.421C166.645 197.966 166.338 198.204 164.702 198.852C163.577 199.312 163.338 199.346 163.253 199.141C163.099 198.767 163.509 198.477 164.616 198.17C165.383 197.949 165.673 197.761 165.895 197.387C166.236 196.79 166.508 196.807 166.577 197.421ZM54.9176 200.487C54.8665 200.606 54.8324 200.521 54.8324 200.283C54.8324 200.044 54.8665 199.959 54.9176 200.061C54.9517 200.181 54.9517 200.385 54.9176 200.487ZM60.5423 201.39L61.1559 201.646L61.0536 202.514C60.9855 203.008 60.9173 203.434 60.8661 203.468C60.7298 203.622 58.2072 202.242 58.2072 202.003C58.2072 201.203 59.3662 200.896 60.5423 201.39ZM112.068 215.871L113.005 216.382L111.744 216.433C111.062 216.467 110.466 216.45 110.415 216.416C110.329 216.313 110.926 215.257 111.045 215.325C111.096 215.342 111.557 215.598 112.068 215.871ZM120.795 215.785C120.147 215.939 116.841 216.16 117.096 216.041C117.352 215.922 119.704 215.666 120.59 215.649C121.323 215.649 121.34 215.649 120.795 215.785ZM103.801 216.126C104.04 216.228 103.733 216.279 102.864 216.279C101.978 216.296 101.671 216.245 101.841 216.126C102.148 215.922 103.341 215.922 103.801 216.126Z" fill="white"/>
<path d="M145.305 64.3368C145.169 64.422 143.686 65.1375 141.998 65.9041C139.288 67.1477 138.606 67.5736 138.862 67.8291C139.152 68.1358 143.618 66.1766 144.777 65.2397C145.203 64.899 145.595 64.5923 145.629 64.5753C145.646 64.5412 145.646 64.456 145.629 64.3538C145.578 64.2346 145.475 64.2346 145.305 64.3368Z" fill="white"/>
<path d="M105.335 46.1766L104.824 46.381L105.404 46.5003C105.71 46.5684 106.375 46.6195 106.852 46.6366C107.875 46.6536 108.778 46.9262 107.858 46.9432C107.364 46.9602 106.972 47.2158 107.176 47.4032C107.313 47.5395 109.597 47.5395 109.835 47.4032C109.989 47.3009 109.954 47.1987 109.682 47.0113C109.409 46.8239 109.358 46.7047 109.494 46.5684C109.597 46.4662 109.682 46.2788 109.682 46.1595C109.682 45.8529 106.051 45.8699 105.335 46.1766Z" fill="white"/>
<path d="M109.818 48.5957C109.102 48.8171 109 48.9023 109 49.3112C109 49.7711 109.562 50.8614 109.92 51.0829C110.023 51.151 110.5 51.2192 110.96 51.2192C111.983 51.2192 113.21 50.6059 113.125 50.1459C113.091 49.9756 113.227 49.6178 113.432 49.3452L113.79 48.8512L113.278 48.5786C112.63 48.255 110.909 48.255 109.818 48.5957Z" fill="white"/>
<path d="M102.404 48.749C101.824 49.0045 101.654 49.3453 102.097 49.3453C102.25 49.3453 102.642 49.4645 103 49.6178L103.631 49.8904L103.068 50.163C102.762 50.3163 102.54 50.5207 102.574 50.6059C102.608 50.7081 102.966 50.9637 103.392 51.1681C104.21 51.5769 104.773 51.5599 105.318 51.0829C105.71 50.7252 107.006 49.0045 106.921 48.9194C106.801 48.8171 104.381 48.4935 103.682 48.4935C103.273 48.5105 102.694 48.6127 102.404 48.749Z" fill="white"/>
<path d="M105.881 52.3947C105.301 53.4509 105.284 54.0982 105.864 54.6434C106.222 54.9841 106.46 55.0522 107.278 55.0352C108.778 55.0011 109.17 54.8649 109.17 54.3538C109.17 53.979 109.136 53.9449 108.812 54.1323C108.523 54.2686 108.216 54.2516 107.364 54.0131L106.273 53.6894L106.375 52.6332C106.443 52.0369 106.46 51.5599 106.409 51.5599C106.358 51.5599 106.119 51.9347 105.881 52.3947Z" fill="white"/>
<path d="M96.8302 72.2755C96.6597 72.7014 96.0973 73.468 95.603 73.9791C94.6144 75.0012 94.7167 75.1545 95.9268 74.405C97.0177 73.7065 97.6824 72.6332 97.5972 71.6963C97.5631 71.2363 97.137 71.5429 96.8302 72.2755Z" fill="white"/>
<path d="M106.75 71.9177C106.682 71.9859 106.784 72.3436 106.972 72.7354C107.142 73.1273 107.296 73.7406 107.296 74.0813C107.296 74.6605 107.347 74.7286 107.722 74.7286C108.114 74.7286 108.148 74.6605 108.131 73.9961C108.114 72.8547 107.193 71.4748 106.75 71.9177Z" fill="white"/>
<path d="M116.892 82.6673C116.142 83.0421 116.176 83.2466 116.994 83.2466C117.744 83.2466 118.272 82.8207 117.846 82.5481C117.539 82.3607 117.539 82.3607 116.892 82.6673Z" fill="white"/>
<path d="M97.4438 83.451C97.4949 83.5702 97.8358 83.6895 98.2449 83.7236C98.7903 83.7576 98.9607 83.7236 98.9096 83.5532C98.8585 83.434 98.5176 83.3147 98.1085 83.2806C97.5631 83.2466 97.3926 83.2806 97.4438 83.451Z" fill="white"/>
<path d="M111.045 87.6588C110.704 87.7611 110.841 87.8292 111.898 88.1529C113.278 88.5618 113.602 88.5958 113.602 88.3914C113.602 87.9996 111.744 87.4544 111.045 87.6588Z" fill="white"/>
<path d="M105.148 88.204C104.858 88.2892 104.5 88.4766 104.381 88.6469C104.159 88.9024 104.193 88.9195 104.568 88.8173C104.807 88.7662 105.506 88.6639 106.154 88.6128C107.432 88.4766 107.619 88.2892 106.665 88.1188C105.898 87.9995 105.83 87.9995 105.148 88.204Z" fill="white"/>
<path d="M108.318 98.9025C108.063 99.3965 108.097 99.4647 108.625 99.3965C108.949 99.3624 109.102 99.2432 109.136 98.9536C109.205 98.4766 108.574 98.4255 108.318 98.9025Z" fill="white"/>
<path d="M115.818 100.623C115.818 101.424 116.073 101.509 116.687 100.862C117.096 100.436 117.096 100.419 116.772 100.18C116.142 99.7202 115.818 99.8735 115.818 100.623Z" fill="white"/>
<path d="M109.903 100.316C109.818 100.436 109.665 100.828 109.562 101.168C109.392 101.764 109.392 101.782 109.733 101.662C110.227 101.475 110.773 100.708 110.653 100.385C110.517 100.061 110.125 100.027 109.903 100.316Z" fill="white"/>
<path d="M101.381 101.049C101.62 101.747 101.722 101.765 102.319 101.305C102.762 100.947 102.762 100.93 102.455 100.691C102.267 100.555 101.909 100.453 101.654 100.453C101.194 100.453 101.177 100.47 101.381 101.049Z" fill="white"/>
<path d="M108.148 101.373C108.148 101.867 108.523 102.207 108.898 102.054C109.239 101.918 109.239 101.816 108.847 101.339C108.42 100.845 108.148 100.862 108.148 101.373Z" fill="white"/>
<path d="M108.267 108.579C108.199 108.63 108.148 109.056 108.148 109.516V110.334H108.812C109.46 110.334 109.665 110.112 109.682 109.345C109.682 108.817 108.608 108.221 108.267 108.579Z" fill="white"/>
<path d="M117.233 115.223C116.397 116.62 116.295 117.199 116.994 116.569C117.505 116.109 118.238 114.627 118.17 114.15C118.119 113.792 117.982 113.945 117.233 115.223Z" fill="white"/>
<path d="M98.8414 114.695C98.7392 115.257 98.8073 115.529 99.3869 116.62C100.069 117.897 100.495 118.34 101.023 118.34C101.432 118.34 101.415 118.289 100.682 117.182C100.324 116.654 99.8471 115.785 99.6425 115.274C99.1141 114.013 98.9948 113.928 98.8414 114.695Z" fill="white"/>
<path d="M104.96 125.836C104.943 126.092 105.029 126.177 105.352 126.177C105.642 126.177 105.762 126.092 105.762 125.836C105.762 125.598 105.642 125.495 105.37 125.495C105.097 125.495 104.977 125.598 104.96 125.836Z" fill="white"/>
<path d="M108.148 130.674C108.148 131.356 108.386 131.594 108.625 131.168C108.744 130.981 108.727 130.742 108.608 130.487C108.352 129.925 108.148 130.01 108.148 130.674Z" fill="white"/>
<path d="M110.977 160.419C110.858 161.203 111.131 162.446 111.829 164.269C112.153 165.104 112.29 165.819 112.324 166.756C112.375 168.221 112.767 169.158 113.397 169.243C113.926 169.329 113.875 168.954 113.261 167.966C112.818 167.267 112.75 167.012 112.75 165.921C112.75 164.916 112.596 164.218 111.966 162.259C111.54 160.913 111.165 159.806 111.148 159.772C111.114 159.755 111.045 160.044 110.977 160.419Z" fill="white"/>
<path d="M113.346 171.816C113.21 172.617 113.466 173.196 113.96 173.196C114.233 173.196 114.284 173.128 114.199 172.889C114.13 172.736 114.045 172.344 113.994 172.054C113.943 171.748 113.807 171.424 113.687 171.322C113.517 171.186 113.432 171.288 113.346 171.816Z" fill="white"/>
<path d="M103.409 207.301C103.086 207.625 103.171 208.119 103.546 208.119C103.801 208.119 103.887 208 103.887 207.71C103.887 207.199 103.682 207.029 103.409 207.301Z" fill="white"/>
<path d="M112.784 208.238C112.477 208.801 112.545 209.55 112.988 210.555C113.551 211.85 114.539 212.497 114.659 211.646C114.693 211.356 114.812 211.288 115.153 211.322C115.75 211.373 116.142 210.93 115.801 210.589C115.596 210.368 115.477 210.419 114.983 210.879L114.403 211.424L114.011 210.964C113.807 210.709 113.551 210.078 113.432 209.533C113.329 208.988 113.176 208.392 113.108 208.204C112.971 207.881 112.971 207.881 112.784 208.238Z" fill="white"/>
<path d="M100.699 209.175C100.358 209.618 100.307 209.993 100.58 209.993C100.887 209.993 101.517 209.295 101.381 209.107C101.262 208.903 100.887 208.954 100.699 209.175Z" fill="white"/>
<path d="M65.2977 72.6332C65.0591 72.8717 65.2125 73.1784 65.6727 73.3317C65.9284 73.4339 66.6783 73.7065 67.326 73.945C69.7293 74.8309 73.2575 75.4441 77.1267 75.6656C78.797 75.7508 78.8822 75.7338 78.2857 75.5123C77.5016 75.2056 75.729 74.8649 72.0303 74.3027C69.2691 73.8939 66.8999 73.2976 65.8602 72.7525C65.6045 72.6332 65.3659 72.5821 65.2977 72.6332Z" fill="white"/>
<path d="M129.624 156.501C129.624 156.722 129.743 156.841 129.965 156.841C130.357 156.841 130.408 156.671 130.101 156.364C129.794 156.058 129.624 156.109 129.624 156.501Z" fill="white"/>
<path d="M135.163 164.167C135.794 164.627 136.374 165.019 136.459 165.019C136.527 165.019 136.731 165.07 136.902 165.121C137.328 165.274 135.964 163.86 135.385 163.553C135.129 163.417 134.72 163.315 134.465 163.315C134.055 163.315 134.141 163.417 135.163 164.167Z" fill="white"/>
<path d="M152.481 198.051C152.583 198.324 152.805 198.681 152.992 198.852C153.282 199.124 153.367 199.124 153.486 198.92C153.81 198.426 153.657 198.068 153.043 197.813C152.259 197.489 152.276 197.472 152.481 198.051Z" fill="white"/>
</svg>
